<svg width="500.00000000000006" height="500.00000000000006" xmlns="http://www.w3.org/2000/svg">
 <title>Obscure045</title>

 <g>
  <title>Layer 1</title>
  <ellipse stroke="#005500" fill="#ffffff" cx="250" cy="250" id="svg_1" rx="200" ry="200" stroke-width="10"/>
  <path stroke="#005500" id="svg_3" d="m250,430c-99.44751,0 -180,-80.55249 -180,-180c0,-99.44751 80.55249,-180 180,-180c99.44751,0 180,80.55249 180,180c0,99.44751 -80.55249,180 -180,180z" opacity="undefined" stroke-width="10" fill="#005500"/>
  <g stroke="null" id="svg_10">
   <path transform="rotate(90 250 229.322)" stroke="#ffffff" fill="#005500" stroke-width="10" d="m139.85986,151.00001l165.21009,0l55.07012,78.32207l-55.07012,78.32242l-165.21009,0l55.07011,-78.32242l-55.07011,-78.32207z" id="svg_8"/>
   <path transform="rotate(90 250 250)" stroke="#ffffff" fill="#005500" stroke-width="10" d="m157.69219,190.55901l138.46165,0l46.15396,59.44086l-46.15396,59.44112l-138.46165,0l46.15395,-59.44112l-46.15395,-59.44086z" id="svg_9"/>
  </g>
  <ellipse stroke="#005500" fill="#ffffff" stroke-width="10" cx="250" cy="310" id="svg_7" rx="90" ry="90"/>
  <ellipse stroke="#ffffff" fill="#005500" stroke-width="10" cx="250" cy="310" id="svg_4" rx="80" ry="80"/>
  <ellipse stroke="#ffffff" fill="#005500" stroke-width="10" cx="250" cy="310" id="svg_5" rx="60" ry="60"/>
 </g>
</svg>
